<?xml version="1.0" encoding="UTF-8" standalone="no"?>
<!DOCTYPE svg PUBLIC "-//W3C//DTD SVG 1.1//EN" "http://www.w3.org/Graphics/SVG/1.1/DTD/svg11.dtd">
<svg width="100%" height="100%" viewBox="0 0 206 41" version="1.1" xmlns="http://www.w3.org/2000/svg" xmlns:xlink="http://www.w3.org/1999/xlink" xml:space="preserve" xmlns:serif="http://www.serif.com/" style="fill-rule:evenodd;clip-rule:evenodd;stroke-linejoin:round;stroke-miterlimit:2;">
    <g transform="matrix(1,0,0,1,-32.737,-25.75)">
        <g transform="matrix(1,0,0,1,78.211,219.171)">
            <path d="M23.785,-164.911C22.571,-164.895 21.365,-165.114 20.234,-165.555C19.189,-165.969 18.249,-166.611 17.484,-167.434C16.685,-168.314 16.08,-169.351 15.708,-170.48C15.269,-171.817 15.057,-173.219 15.08,-174.626C15.055,-176.04 15.295,-177.446 15.788,-178.772C16.213,-179.905 16.862,-180.941 17.697,-181.818C18.488,-182.634 19.442,-183.274 20.497,-183.696C21.584,-184.129 22.745,-184.348 23.915,-184.34C24.608,-184.346 25.3,-184.292 25.984,-184.179C26.525,-184.089 27.059,-183.963 27.584,-183.803C27.964,-183.689 28.334,-183.546 28.692,-183.374C28.893,-183.277 29.089,-183.17 29.279,-183.052L28.531,-180.905C28.311,-181.043 28.079,-181.16 27.837,-181.254C27.534,-181.379 27.192,-181.505 26.809,-181.63C26.398,-181.762 25.979,-181.866 25.554,-181.939C25.1,-182.02 24.64,-182.06 24.179,-182.06C23.272,-182.074 22.372,-181.901 21.535,-181.55C20.764,-181.218 20.08,-180.713 19.535,-180.074C18.959,-179.385 18.527,-178.586 18.267,-177.726C17.961,-176.722 17.812,-175.676 17.826,-174.626C17.815,-173.602 17.945,-172.582 18.213,-171.594C18.441,-170.742 18.836,-169.944 19.375,-169.246C19.89,-168.594 20.554,-168.074 21.311,-167.73C22.164,-167.356 23.089,-167.173 24.021,-167.193C25.022,-167.167 26.022,-167.294 26.985,-167.569C27.588,-167.75 28.177,-167.974 28.747,-168.24L29.415,-166.093C29.204,-165.959 28.98,-165.847 28.747,-165.758C28.356,-165.601 27.955,-165.471 27.547,-165.369C26.993,-165.23 26.431,-165.122 25.865,-165.047C25.176,-164.954 24.481,-164.908 23.785,-164.911ZM32.385,-165.311L32.385,-183.911L43.685,-183.911L43.685,-181.684L34.985,-181.684L34.985,-176.156L42.729,-176.156L42.729,-173.982L34.973,-173.982L34.973,-167.541L44.345,-167.541L44.345,-165.314L32.385,-165.311ZM58.767,-167.565L58.767,-165.311L47.63,-165.311L47.63,-183.911L50.22,-183.911L50.22,-167.568L58.767,-167.565ZM72.625,-167.565L72.625,-165.311L61.488,-165.311L61.488,-183.911L64.078,-183.911L64.078,-167.568L72.625,-167.565ZM75.349,-165.311L75.349,-183.911L86.508,-183.911L86.508,-181.684L77.937,-181.684L77.937,-176.075L85.547,-176.075L85.547,-173.875L77.937,-173.875L77.937,-165.314L75.349,-165.311ZM98.738,-173.1C99.023,-172.742 99.383,-172.272 99.819,-171.691C100.255,-171.11 100.704,-170.466 101.167,-169.759C101.63,-169.052 102.088,-168.314 102.542,-167.545C102.971,-166.825 103.358,-166.081 103.704,-165.318L100.874,-165.318C100.518,-165.998 100.131,-166.687 99.712,-167.384C99.293,-168.081 98.871,-168.748 98.444,-169.384C98.017,-170.019 97.594,-170.614 97.176,-171.169C96.758,-171.724 96.38,-172.207 96.041,-172.618C95.81,-172.6 95.574,-172.591 95.333,-172.591L92.276,-172.591L92.276,-165.318L89.686,-165.318L89.686,-183.647C90.489,-183.834 91.306,-183.952 92.129,-184C93.028,-184.063 93.851,-184.094 94.599,-184.094C96.684,-184.23 98.761,-183.714 100.54,-182.618C101.921,-181.594 102.692,-179.934 102.583,-178.218C102.614,-177.084 102.272,-175.971 101.608,-175.051C100.876,-174.12 99.873,-173.439 98.738,-173.1ZM94.813,-181.822C93.709,-181.822 92.863,-181.795 92.276,-181.741L92.276,-174.741L94.118,-174.741C94.92,-174.736 95.722,-174.781 96.518,-174.875C97.143,-174.94 97.752,-175.112 98.318,-175.385C98.791,-175.62 99.186,-175.989 99.453,-176.445C99.744,-177.003 99.882,-177.628 99.853,-178.256C99.875,-178.862 99.737,-179.464 99.453,-180C99.196,-180.455 98.823,-180.835 98.372,-181.1C97.877,-181.383 97.335,-181.574 96.772,-181.664C96.125,-181.771 95.469,-181.822 94.813,-181.817L94.813,-181.822ZM119.593,-165.322C119.29,-166.127 119.006,-166.919 118.739,-167.697C118.472,-168.475 118.196,-169.267 117.911,-170.072L109.527,-170.072L107.845,-165.322L105.145,-165.322C105.857,-167.29 106.524,-169.11 107.145,-170.783C107.766,-172.456 108.376,-174.044 108.974,-175.547C109.571,-177.05 110.163,-178.485 110.75,-179.854C111.337,-181.223 111.951,-182.578 112.592,-183.92L114.968,-183.92C115.609,-182.578 116.223,-181.223 116.81,-179.854C117.397,-178.485 117.989,-177.05 118.586,-175.547C119.183,-174.044 119.792,-172.456 120.415,-170.783C121.038,-169.11 121.704,-167.289 122.415,-165.322L119.593,-165.322ZM117.163,-172.222C116.594,-173.779 116.027,-175.286 115.463,-176.744C114.899,-178.202 114.316,-179.602 113.714,-180.944C113.091,-179.602 112.499,-178.202 111.938,-176.744C111.377,-175.286 110.821,-173.779 110.269,-172.222L117.163,-172.222ZM133.238,-167.901C133.06,-168.33 132.824,-168.876 132.53,-169.538C132.236,-170.2 131.92,-170.916 131.582,-171.685C131.244,-172.454 130.884,-173.246 130.501,-174.06C130.118,-174.874 129.758,-175.643 129.42,-176.368C129.082,-177.093 128.766,-177.741 128.472,-178.314C128.178,-178.887 127.942,-179.325 127.764,-179.629C127.568,-177.518 127.408,-175.232 127.283,-172.772C127.158,-170.312 127.052,-167.83 126.963,-165.325L124.426,-165.325C124.497,-166.935 124.577,-168.559 124.666,-170.196C124.755,-171.833 124.857,-173.443 124.973,-175.026C125.088,-176.609 125.213,-178.152 125.347,-179.655C125.481,-181.158 125.628,-182.58 125.788,-183.922L128.058,-183.922C128.539,-183.135 129.055,-182.204 129.607,-181.131C130.159,-180.058 130.711,-178.935 131.263,-177.763C131.815,-176.591 132.348,-175.419 132.863,-174.247C133.378,-173.075 133.849,-172.006 134.278,-171.04C134.705,-172.006 135.177,-173.075 135.693,-174.247C136.209,-175.419 136.742,-176.591 137.293,-177.763C137.845,-178.935 138.397,-180.058 138.949,-181.131C139.501,-182.204 140.017,-183.135 140.498,-183.922L142.768,-183.922C143.373,-177.929 143.827,-171.729 144.13,-165.322L141.593,-165.322C141.504,-167.827 141.398,-170.309 141.273,-172.769C141.148,-175.229 140.988,-177.515 140.792,-179.626C140.614,-179.322 140.378,-178.884 140.084,-178.311C139.79,-177.738 139.474,-177.09 139.136,-176.365C138.798,-175.64 138.438,-174.871 138.055,-174.057C137.672,-173.243 137.312,-172.451 136.974,-171.682C136.636,-170.913 136.32,-170.197 136.026,-169.535C135.732,-168.873 135.496,-168.327 135.318,-167.898L133.238,-167.901ZM148.191,-165.325L148.191,-183.925L159.491,-183.925L159.491,-181.698L150.791,-181.698L150.791,-176.17L158.535,-176.17L158.535,-173.996L150.791,-173.996L150.791,-167.555L160.163,-167.555L160.163,-165.328L148.191,-165.325Z" style="fill:white;fill-rule:nonzero;"/>
        </g>
        <g transform="matrix(1,0,0,1,33,26)">
            <g>
                <g>
                    <g>
                        <path d="M10.808,40C9.786,40 8.945,39.159 8.945,38.137C8.945,37.114 9.786,36.273 10.808,36.273C11.83,36.273 12.672,37.114 12.672,38.137C12.672,39.159 11.83,40 10.808,40ZM26.087,37.64C26.087,37.639 26.087,37.638 26.087,37.637C26.087,36.615 26.928,35.774 27.95,35.774C28.972,35.774 29.813,36.615 29.813,37.637C29.813,38.659 28.972,39.5 27.95,39.5C26.929,39.5 26.089,38.661 26.087,37.64ZM21.739,38.758C20.58,38.758 19.627,37.805 19.627,36.646C19.627,35.487 20.58,34.534 21.739,34.534C22.898,34.534 23.851,35.487 23.851,36.646C23.851,37.805 22.898,38.758 21.739,38.758ZM33.039,36.398L33.039,36.315C33.085,35.463 33.798,34.786 34.652,34.786C35.538,34.786 36.267,35.515 36.267,36.401C36.267,37.264 35.576,37.982 34.714,38.015L34.652,38.015C33.769,38.011 33.044,37.283 33.044,36.4L33.039,36.398ZM15.528,35.28C14.233,35.28 13.168,34.215 13.168,32.92C13.168,31.625 14.233,30.56 15.528,30.56C16.823,30.56 17.888,31.625 17.888,32.92C17.888,34.215 16.823,35.28 15.528,35.28ZM6.71,34.531C5.574,34.498 4.658,33.555 4.658,32.419C4.658,31.26 5.612,30.306 6.771,30.306C7.93,30.306 8.884,31.26 8.884,32.419C8.884,33.555 7.968,34.498 6.832,34.531C6.791,34.533 6.751,34.533 6.71,34.531ZM40.124,34.286C39.374,34.286 38.758,33.669 38.758,32.92C38.758,32.17 39.374,31.553 40.124,31.553C40.874,31.553 41.49,32.17 41.49,32.92C41.49,33.669 40.874,34.286 40.124,34.286ZM9.441,26.46C9.441,25.029 10.619,23.851 12.05,23.851C13.481,23.851 14.659,25.029 14.659,26.46C14.659,27.891 13.481,29.069 12.05,29.069C10.619,29.069 9.441,27.891 9.441,26.46ZM42.981,27.7C42.982,27.087 43.486,26.584 44.099,26.584C44.712,26.584 45.217,27.089 45.217,27.702C45.217,28.315 44.713,28.819 44.1,28.82C44.1,28.82 44.099,28.82 44.099,28.82C43.486,28.82 42.981,28.315 42.981,27.702C42.981,27.701 42.981,27.701 42.981,27.7ZM4.1,28.571C2.805,28.571 1.739,27.505 1.739,26.211C1.739,24.916 2.805,23.85 4.1,23.85C5.395,23.85 6.461,24.916 6.461,26.211C6.461,27.505 5.395,28.571 4.1,28.571ZM19.41,27.742C18.511,27.48 17.889,26.65 17.889,25.714C17.889,24.555 18.842,23.602 20.001,23.602C21.16,23.602 22.113,24.555 22.113,25.714C22.112,26.872 21.158,27.825 20,27.825C19.801,27.825 19.604,27.797 19.413,27.742L19.41,27.742ZM7.454,19.5C7.454,17.933 8.744,16.643 10.311,16.643C11.878,16.643 13.168,17.933 13.168,19.5C13.168,21.067 11.878,22.357 10.311,22.357C8.744,22.357 7.454,21.067 7.454,19.5ZM0,19.5C0,18.069 1.178,16.891 2.609,16.891C4.04,16.891 5.218,18.069 5.218,19.5C5.218,20.931 4.04,22.109 2.609,22.109C1.178,22.109 0,20.931 0,19.5ZM15.406,19.343L15.406,19.252C15.406,17.957 16.471,16.892 17.766,16.892C19.061,16.892 20.126,17.957 20.126,19.252L20.126,19.343C20.081,20.605 19.03,21.619 17.768,21.619C16.505,21.619 15.454,20.605 15.409,19.343L15.406,19.343ZM22.361,19.252C22.361,18.093 23.314,17.14 24.473,17.14C25.632,17.14 26.585,18.093 26.585,19.252C26.585,20.411 25.632,21.364 24.473,21.364C23.315,21.365 22.362,20.413 22.36,19.255L22.361,19.252ZM9.441,12.547C9.441,11.116 10.619,9.938 12.05,9.938C13.481,9.938 14.659,11.116 14.659,12.547C14.659,13.978 13.481,15.156 12.05,15.156C10.619,15.156 9.441,13.978 9.441,12.547ZM4.1,15.155C2.805,15.155 1.74,14.09 1.74,12.795C1.74,11.5 2.805,10.435 4.1,10.435C5.395,10.435 6.46,11.5 6.46,12.795C6.46,14.09 5.395,15.155 4.1,15.155ZM19.9,14.9C18.778,14.849 17.883,13.913 17.883,12.79C17.883,11.632 18.836,10.678 19.995,10.678C21.154,10.678 22.107,11.632 22.107,12.79C22.107,13.913 21.212,14.849 20.09,14.9L19.9,14.9ZM42.977,12.542C42.98,11.931 43.484,11.429 44.095,11.429C44.708,11.429 45.213,11.934 45.213,12.547C45.213,13.158 44.711,13.662 44.1,13.665C44.1,13.665 44.099,13.665 44.099,13.665C43.486,13.665 42.981,13.16 42.981,12.547C42.981,12.547 42.977,12.542 42.977,12.542ZM15.528,9.193C14.233,9.193 13.168,8.127 13.168,6.832C13.168,5.538 14.233,4.472 15.528,4.472C16.823,4.472 17.889,5.538 17.889,6.832C17.889,8.127 16.823,9.193 15.528,9.193ZM6.71,8.941C5.574,8.908 4.658,7.965 4.658,6.829C4.658,5.67 5.612,4.716 6.771,4.716C7.93,4.716 8.884,5.67 8.884,6.829C8.884,7.965 7.968,8.908 6.832,8.941C6.791,8.943 6.751,8.943 6.71,8.941ZM40.124,8.7C39.374,8.7 38.758,8.083 38.758,7.333C38.758,6.584 39.374,5.967 40.124,5.967C40.874,5.967 41.49,6.584 41.49,7.333C41.49,8.083 40.874,8.7 40.124,8.7ZM21.739,5.714C20.58,5.714 19.627,4.761 19.627,3.602C19.627,2.443 20.58,1.49 21.739,1.49C22.898,1.49 23.851,2.443 23.851,3.602C23.851,4.761 22.898,5.714 21.739,5.714ZM33.044,3.6L33.044,3.517C33.066,2.646 33.789,1.943 34.659,1.942C35.546,1.942 36.275,2.672 36.275,3.558C36.275,4.445 35.546,5.175 34.659,5.175C33.789,5.175 33.066,4.471 33.044,3.6ZM26.087,2.606C26.089,1.585 26.929,0.746 27.95,0.746C28.972,0.746 29.813,1.587 29.813,2.609C29.813,3.631 28.972,4.472 27.95,4.472C26.928,4.472 26.087,3.631 26.087,2.609L26.087,2.606ZM10.808,3.727C9.786,3.727 8.945,2.886 8.945,1.864C8.945,0.841 9.786,0 10.808,0C11.83,-0 12.672,0.841 12.672,1.863C12.672,2.886 11.83,3.727 10.808,3.727Z" style="fill:white;fill-rule:nonzero;"/>
                    </g>
                    <g>
                        <path d="M10.808,40C9.786,40 8.945,39.159 8.945,38.137C8.945,37.114 9.786,36.273 10.808,36.273C11.83,36.273 12.672,37.114 12.672,38.137C12.672,39.159 11.83,40 10.808,40ZM26.087,37.64C26.087,37.639 26.087,37.638 26.087,37.637C26.087,36.615 26.928,35.774 27.95,35.774C28.972,35.774 29.813,36.615 29.813,37.637C29.813,38.659 28.972,39.5 27.95,39.5C26.929,39.5 26.089,38.661 26.087,37.64ZM21.739,38.758C20.58,38.758 19.627,37.805 19.627,36.646C19.627,35.487 20.58,34.534 21.739,34.534C22.898,34.534 23.851,35.487 23.851,36.646C23.851,37.805 22.898,38.758 21.739,38.758ZM33.039,36.398L33.039,36.315C33.085,35.463 33.798,34.786 34.652,34.786C35.538,34.786 36.267,35.515 36.267,36.401C36.267,37.264 35.576,37.982 34.714,38.015L34.652,38.015C33.769,38.011 33.044,37.283 33.044,36.4L33.039,36.398ZM15.528,35.28C14.233,35.28 13.168,34.215 13.168,32.92C13.168,31.625 14.233,30.56 15.528,30.56C16.823,30.56 17.888,31.625 17.888,32.92C17.888,34.215 16.823,35.28 15.528,35.28ZM6.71,34.531C5.574,34.498 4.658,33.555 4.658,32.419C4.658,31.26 5.612,30.306 6.771,30.306C7.93,30.306 8.884,31.26 8.884,32.419C8.884,33.555 7.968,34.498 6.832,34.531C6.791,34.533 6.751,34.533 6.71,34.531ZM40.124,34.286C39.374,34.286 38.758,33.669 38.758,32.92C38.758,32.17 39.374,31.553 40.124,31.553C40.874,31.553 41.49,32.17 41.49,32.92C41.49,33.669 40.874,34.286 40.124,34.286ZM9.441,26.46C9.441,25.029 10.619,23.851 12.05,23.851C13.481,23.851 14.659,25.029 14.659,26.46C14.659,27.891 13.481,29.069 12.05,29.069C10.619,29.069 9.441,27.891 9.441,26.46ZM42.981,27.7C42.982,27.087 43.486,26.584 44.099,26.584C44.712,26.584 45.217,27.089 45.217,27.702C45.217,28.315 44.713,28.819 44.1,28.82C44.1,28.82 44.099,28.82 44.099,28.82C43.486,28.82 42.981,28.315 42.981,27.702C42.981,27.701 42.981,27.701 42.981,27.7ZM4.1,28.571C2.805,28.571 1.739,27.505 1.739,26.211C1.739,24.916 2.805,23.85 4.1,23.85C5.395,23.85 6.461,24.916 6.461,26.211C6.461,27.505 5.395,28.571 4.1,28.571ZM19.41,27.742C18.511,27.48 17.889,26.65 17.889,25.714C17.889,24.555 18.842,23.602 20.001,23.602C21.16,23.602 22.113,24.555 22.113,25.714C22.112,26.872 21.158,27.825 20,27.825C19.801,27.825 19.604,27.797 19.413,27.742L19.41,27.742ZM7.454,19.5C7.454,17.933 8.744,16.643 10.311,16.643C11.878,16.643 13.168,17.933 13.168,19.5C13.168,21.067 11.878,22.357 10.311,22.357C8.744,22.357 7.454,21.067 7.454,19.5ZM0,19.5C0,18.069 1.178,16.891 2.609,16.891C4.04,16.891 5.218,18.069 5.218,19.5C5.218,20.931 4.04,22.109 2.609,22.109C1.178,22.109 0,20.931 0,19.5ZM15.406,19.343L15.406,19.252C15.406,17.957 16.471,16.892 17.766,16.892C19.061,16.892 20.126,17.957 20.126,19.252L20.126,19.343C20.081,20.605 19.03,21.619 17.768,21.619C16.505,21.619 15.454,20.605 15.409,19.343L15.406,19.343ZM22.361,19.252C22.361,18.093 23.314,17.14 24.473,17.14C25.632,17.14 26.585,18.093 26.585,19.252C26.585,20.411 25.632,21.364 24.473,21.364C23.315,21.365 22.362,20.413 22.36,19.255L22.361,19.252ZM9.441,12.547C9.441,11.116 10.619,9.938 12.05,9.938C13.481,9.938 14.659,11.116 14.659,12.547C14.659,13.978 13.481,15.156 12.05,15.156C10.619,15.156 9.441,13.978 9.441,12.547ZM4.1,15.155C2.805,15.155 1.74,14.09 1.74,12.795C1.74,11.5 2.805,10.435 4.1,10.435C5.395,10.435 6.46,11.5 6.46,12.795C6.46,14.09 5.395,15.155 4.1,15.155ZM19.9,14.9C18.778,14.849 17.883,13.913 17.883,12.79C17.883,11.632 18.836,10.678 19.995,10.678C21.154,10.678 22.107,11.632 22.107,12.79C22.107,13.913 21.212,14.849 20.09,14.9L19.9,14.9ZM42.977,12.542C42.98,11.931 43.484,11.429 44.095,11.429C44.708,11.429 45.213,11.934 45.213,12.547C45.213,13.158 44.711,13.662 44.1,13.665C44.1,13.665 44.099,13.665 44.099,13.665C43.486,13.665 42.981,13.16 42.981,12.547C42.981,12.547 42.977,12.542 42.977,12.542ZM15.528,9.193C14.233,9.193 13.168,8.127 13.168,6.832C13.168,5.538 14.233,4.472 15.528,4.472C16.823,4.472 17.889,5.538 17.889,6.832C17.889,8.127 16.823,9.193 15.528,9.193ZM6.71,8.941C5.574,8.908 4.658,7.965 4.658,6.829C4.658,5.67 5.612,4.716 6.771,4.716C7.93,4.716 8.884,5.67 8.884,6.829C8.884,7.965 7.968,8.908 6.832,8.941C6.791,8.943 6.751,8.943 6.71,8.941ZM40.124,8.7C39.374,8.7 38.758,8.083 38.758,7.333C38.758,6.584 39.374,5.967 40.124,5.967C40.874,5.967 41.49,6.584 41.49,7.333C41.49,8.083 40.874,8.7 40.124,8.7ZM21.739,5.714C20.58,5.714 19.627,4.761 19.627,3.602C19.627,2.443 20.58,1.49 21.739,1.49C22.898,1.49 23.851,2.443 23.851,3.602C23.851,4.761 22.898,5.714 21.739,5.714ZM33.044,3.6L33.044,3.517C33.066,2.646 33.789,1.943 34.659,1.942C35.546,1.942 36.275,2.672 36.275,3.558C36.275,4.445 35.546,5.175 34.659,5.175C33.789,5.175 33.066,4.471 33.044,3.6ZM26.087,2.606C26.089,1.585 26.929,0.746 27.95,0.746C28.972,0.746 29.813,1.587 29.813,2.609C29.813,3.631 28.972,4.472 27.95,4.472C26.928,4.472 26.087,3.631 26.087,2.609L26.087,2.606ZM10.808,3.727C9.786,3.727 8.945,2.886 8.945,1.864C8.945,0.841 9.786,0 10.808,0C11.83,-0 12.672,0.841 12.672,1.863C12.672,2.886 11.83,3.727 10.808,3.727Z" style="fill:url(#_Linear1);fill-rule:nonzero;"/>
                    </g>
                </g>
            </g>
        </g>
    </g>
    <defs>
        <linearGradient id="_Linear1" x1="0" y1="0" x2="1" y2="0" gradientUnits="userSpaceOnUse" gradientTransform="matrix(45.217,-36.76,36.76,45.217,0,40)"><stop offset="0" style="stop-color:rgb(150,75,255);stop-opacity:1"/><stop offset="0.37" style="stop-color:rgb(166,149,255);stop-opacity:1"/><stop offset="0.65" style="stop-color:rgb(60,233,255);stop-opacity:1"/><stop offset="0.86" style="stop-color:rgb(202,255,44);stop-opacity:1"/><stop offset="1" style="stop-color:rgb(255,255,33);stop-opacity:1"/></linearGradient>
    </defs>
</svg>
